<svg width="200" height="200" viewBox="0 0 200 200" fill="none" xmlns="http://www.w3.org/2000/svg">
  <defs>
    <linearGradient id="paint0_linear" x1="20" y1="20" x2="180" y2="180" gradientUnits="userSpaceOnUse">
      <stop stop-color="#FF00FF"/>
      <stop offset="0.5" stop-color="#00FFFF"/>
      <stop offset="1" stop-color="#7000FF"/>
    </linearGradient>
    <filter id="glow" x="-20%" y="-20%" width="140%" height="140%">
      <stop offset="0%" stop-color="#FF00FF" stop-opacity="0.5"/>
      <feGaussianBlur stdDeviation="5" result="blur"/>
      <feComposite in="SourceGraphic" in2="blur" operator="over"/>
    </filter>
  </defs>
  <!-- Simulação do Design Enviado (Letras C e Barras) -->
  <path d="M40 30V170" stroke="url(#paint0_linear)" stroke-width="8" stroke-linecap="round"/>
  <path d="M65 50V150" stroke="url(#paint0_linear)" stroke-width="8" stroke-linecap="round" opacity="0.8"/>
  
  <path d="M110 50C90 50 75 65 75 85V115C75 135 90 150 110 150H140C160 150 175 135 175 115V85C175 65 160 50 140 50H110Z" 
        stroke="url(#paint0_linear)" stroke-width="12" fill="none" />
  
  <path d="M120 75C110 75 105 80 105 90V110C105 120 110 125 120 125H135C145 125 150 120 150 110V90C150 80 145 75 135 75H120Z" 
        fill="url(#paint0_linear)" />
</svg>
